<?xml version="1.0" encoding="UTF-8"?>
<svg id="Capa_3" data-name="Capa 3" xmlns="http://www.w3.org/2000/svg" viewBox="0 0 4000 1500">
  <g>
    <path d="M2191.32,757.98c8.83-15.47,20.88-27.52,36.16-36.16,15.28-8.63,32.41-12.96,51.39-12.96,22.21,0,41.66,5.7,58.37,17.08,16.7,11.39,28.38,27.15,35.02,47.26h-45.84c-4.56-9.49-10.96-16.61-19.22-21.35-8.26-4.74-17.8-7.12-28.62-7.12-11.58,0-21.88,2.71-30.89,8.11-9.02,5.41-16.04,13.05-21.07,22.92-5.03,9.87-7.54,21.45-7.54,34.74s2.51,24.63,7.54,34.59c5.03,9.96,12.05,17.65,21.07,23.06,9.01,5.41,19.31,8.11,30.89,8.11,10.82,0,20.36-2.42,28.62-7.26,8.26-4.84,14.66-12,19.22-21.5h45.84c-6.65,20.31-18.27,36.12-34.88,47.41-16.61,11.29-36.12,16.94-58.51,16.94-18.98,0-36.12-4.32-51.39-12.96-15.28-8.63-27.33-20.64-36.16-36.02s-13.24-32.84-13.24-52.39,4.41-37.06,13.24-52.53Z" fill="#3d3753"/>
    <path d="M2508.93,910.17l-43.85-77.45h-18.79v77.45h-39.86v-198.74h74.6c15.38,0,28.47,2.71,39.29,8.12,10.82,5.41,18.94,12.72,24.35,21.92,5.41,9.21,8.11,19.5,8.11,30.89,0,13.1-3.8,24.91-11.39,35.45-7.59,10.54-18.89,17.8-33.88,21.78l47.55,80.58h-46.13ZM2446.29,802.83h33.31c10.82,0,18.88-2.61,24.2-7.83,5.31-5.22,7.97-12.48,7.97-21.78s-2.66-16.18-7.97-21.21c-5.32-5.03-13.38-7.55-24.2-7.55h-33.31v58.37Z" fill="#3d3753"/>
    <path d="M2628.8,743.6v49.83h66.91v31.6h-66.91v52.67h75.45v32.46h-115.31v-199.02h115.31v32.46h-75.45Z" fill="#3d3753"/>
    <path d="M2862.27,872.3h-79.15l-13.1,37.87h-41.86l71.47-199.02h46.41l71.47,199.02h-42.14l-13.1-37.87ZM2851.46,840.41l-28.76-83.14-28.76,83.14h57.52Z" fill="#3d3753"/>
    <path d="M3079.52,711.43v32.17h-52.96v166.56h-39.86v-166.56h-52.96v-32.17h145.78Z" fill="#3d3753"/>
    <path d="M3148.42,711.43v198.74h-39.86v-198.74h39.86Z" fill="#3d3753"/>
    <path d="M3366.23,711.43l-72.89,198.74h-48.4l-72.89-198.74h42.71l54.67,158.02,54.38-158.02h42.42Z" fill="#3d3753"/>
    <path d="M3431.15,899.06c-15.57-8.73-27.9-20.83-37.02-36.3-9.11-15.47-13.67-32.98-13.67-52.53s4.56-36.77,13.67-52.25c9.11-15.47,21.45-27.57,37.02-36.3,15.56-8.73,32.64-13.1,51.25-13.1s35.92,4.37,51.39,13.1c15.47,8.73,27.71,20.83,36.73,36.3,9.01,15.47,13.53,32.89,13.53,52.25s-4.51,37.06-13.53,52.53c-9.02,15.47-21.31,27.57-36.87,36.3-15.57,8.73-32.65,13.1-51.25,13.1s-35.69-4.36-51.25-13.1ZM3514.01,868.46c9.11-5.41,16.23-13.14,21.35-23.21,5.12-10.06,7.69-21.73,7.69-35.02s-2.56-24.91-7.69-34.88c-5.12-9.97-12.24-17.6-21.35-22.92-9.11-5.31-19.65-7.97-31.61-7.97s-22.54,2.66-31.75,7.97c-9.21,5.32-16.37,12.96-21.5,22.92-5.12,9.96-7.69,21.59-7.69,34.88s2.56,24.96,7.69,35.02c5.12,10.06,12.29,17.8,21.5,23.21,9.21,5.41,19.79,8.11,31.75,8.11s22.49-2.71,31.61-8.11Z" fill="#3d3753"/>
  </g>
  <g>
    <g>
      <path d="M881.19,639.95c0-47.67-38.65-86.32-86.32-86.32-30.96,0-58.1,16.3-73.34,40.78-26.6-11.54-56.32-17.99-87.67-17.99s-60.21,6.27-86.52,17.49c-15.29-24.21-42.28-40.29-73.03-40.29-47.67,0-86.32,38.65-86.32,86.32,0,33.45,19.03,62.46,46.85,76.79-4.62,15.79-7.09,32.4-7.09,49.54,0,104.86,92.28,189.86,206.11,189.86s206.11-85,206.11-189.86c0-16.91-2.4-33.3-6.91-48.9,28.51-14.09,48.13-43.47,48.13-77.43Z" fill="#ad4554" stroke="#3c3454" stroke-linecap="round" stroke-linejoin="round" stroke-width="20"/>
      <path d="M649.56,842.97s-.04.04-.06.07c.05-.06.11-.11.16-.16-.03.03-.07.06-.1.1Z" fill="#ad4554"/>
      <path d="M714.39,849.63c-3.96-35.36-38.01-69.53-79.61-69.52-41.61.02-76.51,34.25-79.61,70.08-.24,2.69-2.18,30.21,17.38,50.45,18.1,18.73,42.72,18.91,62.23,19.06,19.89.15,45.85.35,63.91-19.06,18.73-20.12,16.09-47.47,15.7-51.02ZM682.36,887.38c-.13.13-.26.26-.4.39-.52.5-1.04.99-1.57,1.45-.17.15-.34.3-.51.43-.12.11-.24.2-.35.3-.15.13-.3.25-.45.37-.12.1-.24.19-.36.29-.16.13-.33.25-.49.38-.26.2-.53.39-.79.58-.29.21-.58.41-.88.62-.27.18-.54.36-.82.53-.23.16-.47.3-.7.44-.06.04-.11.07-.17.11-.2.12-.4.25-.61.36-.55.33-1.1.63-1.66.92-.24.12-.48.25-.72.36-.38.2-.77.38-1.16.55-.24.11-.47.22-.71.32-.07.04-.15.07-.23.1-.22.1-.44.19-.67.28-.07.03-.13.06-.21.08-.25.11-.5.2-.76.3-.01,0-.03.01-.05.02-.54.2-1.09.4-1.63.59-.62.21-1.25.41-1.88.6-.59.18-1.19.35-1.79.5-.2.06-.41.11-.61.16-.26.07-.53.13-.8.19-.87.21-1.74.4-2.62.56-.26.05-.53.1-.79.15-.41.08-.82.15-1.23.21-.3.05-.61.1-.91.14-.36.06-.71.11-1.07.15-.04,0-.08.01-.12.02-.02,0-.03,0-.05,0-3.47.43-6.88-1.43-8.27-4.61-.06-.13-.11-.25-.16-.38-.12-.31-.23-.63-.33-.95-.13-.4-.25-.82-.35-1.23-.33-1.39-.51-2.84-.51-4.34v-8.97c0-.34.01-.67.03-1.01,0-.17.02-.34.03-.5.03-.33.06-.66.11-.99.02-.16.04-.33.07-.49.03-.22.07-.43.12-.65.05-.26.11-.53.17-.78.22-.9.5-1.77.85-2.61.1-.25.21-.5.33-.76.12-.26.24-.5.37-.75.08-.15.16-.3.25-.45.41-.76.89-1.49,1.41-2.17.11-.15.22-.3.35-.45.01-.02.02-.04.04-.06.17-.21.35-.42.53-.62.05-.06.11-.12.17-.19.08-.1.17-.19.26-.28.02-.02.04-.04.06-.07.03-.03.07-.07.1-.1.08-.09.17-.17.25-.25.17-.18.35-.35.53-.51.22-.12.44-.26.66-.39.19-.12.38-.24.57-.36.19-.12.38-.25.57-.38.77-.53,1.64-1.13,2.55-1.81,3.47-2.63,7.48-6.52,8.21-12.52.83-6.84-2.97-13.44-7.85-16.82-2.87-1.98-5.06-2.12-20.77-2.24-17.87-.13-20.23,0-22.96,2.24-4.84,3.96-6.62,11.02-5.61,16.82,1.06,6.09,5.03,9.89,8.54,12.5.93.69,1.82,1.29,2.62,1.84.22.15.53.35.94.61.21.12.43.26.68.41.25.21.49.44.72.67,0,0,.01.01.02.02.01.01.02.02.03.03,3.35,3.35,5.42,7.97,5.42,13.08v8.97c0,.26,0,.52-.02.77,0,.18-.02.36-.03.54-.01.19-.02.38-.04.57-.02.2-.04.39-.07.58-.03.2-.06.4-.09.6-.03.21-.07.41-.11.62-.02.07-.03.14-.04.21-.04.19-.08.38-.13.57-.01.04-.02.09-.03.13-.05.21-.11.42-.17.63,0,.02-.01.04-.02.06-.07.22-.13.44-.21.66t0,.01s0,.01,0,.02c-.03.1-.07.2-.11.3-1.33,3.43-4.85,5.52-8.52,5.03-.02,0-.04,0-.06,0-.69-.1-1.38-.2-2.07-.33-.73-.12-1.47-.26-2.2-.41-.33-.07-.66-.13-.99-.21-.45-.1-.9-.2-1.35-.31-.26-.06-.51-.13-.77-.2-.26-.07-.52-.13-.77-.21-.26-.07-.52-.14-.77-.22-1.18-.34-2.36-.73-3.52-1.17-.24-.08-.47-.17-.71-.27-.08-.03-.17-.07-.26-.1-.19-.08-.39-.16-.58-.24-.26-.1-.51-.21-.76-.33-.31-.13-.62-.27-.93-.41-.34-.16-.68-.31-1.01-.48-.36-.18-.73-.36-1.09-.56-.3-.16-.59-.31-.89-.48-.02-.01-.04-.03-.07-.04-.29-.16-.57-.33-.85-.49-.07-.03-.13-.07-.19-.11-.21-.12-.43-.26-.64-.39-.21-.13-.43-.27-.64-.41-.22-.14-.44-.29-.66-.44-.06-.04-.12-.08-.18-.12-.53-.36-1.07-.75-1.59-1.14-.22-.17-.45-.35-.68-.53-.17-.13-.34-.27-.5-.4-.19-.16-.38-.31-.57-.48-.08-.06-.15-.12-.22-.19-.2-.17-.4-.34-.59-.53-.38-.33-.75-.68-1.12-1.03-.06-.05-.11-.11-.16-.16-14.38-14.04-12.94-33.03-12.77-34.89,2.31-24.88,28.27-48.67,59.23-48.68,30.96-.01,56.28,23.72,59.24,48.29.29,2.46,2.25,21.46-11.68,35.44Z" fill="#3d3753"/>
      <path d="M682.36,887.38c-.13.13-.26.26-.4.39-.52.5-1.04.99-1.57,1.45-.17.15-.34.3-.51.43-.12.11-.24.2-.35.3-.15.13-.3.25-.45.37-.12.1-.24.19-.36.29-.16.13-.33.25-.49.38-.26.2-.53.39-.79.58-.29.21-.58.41-.88.62-.27.18-.54.36-.82.53-.23.16-.47.3-.7.44-.06.04-.11.07-.17.11-.2.12-.4.25-.61.36-.55.33-1.1.63-1.66.92-.24.12-.48.25-.72.36-.38.2-.77.38-1.16.55-.24.11-.47.22-.71.32-.07.04-.15.07-.23.1-.22.1-.44.19-.67.28-.07.03-.13.06-.21.08-.25.11-.5.2-.76.3-.01,0-.03.01-.05.02-.54.2-1.09.4-1.63.59-.62.21-1.25.41-1.88.6-.59.18-1.19.35-1.79.5-.2.06-.41.11-.61.16-.26.07-.53.13-.8.19-.87.21-1.74.4-2.62.56-.26.05-.53.1-.79.15-.41.08-.82.15-1.23.21-.3.05-.61.1-.91.14-.36.06-.71.11-1.07.15-.04,0-.08.01-.12.02-.02,0-.03,0-.05,0-3.47.43-6.88-1.43-8.27-4.61-.06-.13-.11-.25-.16-.38-.12-.31-.23-.63-.33-.95-.13-.4-.25-.82-.35-1.23-.33-1.39-.51-2.84-.51-4.34v-8.97c0-.34.01-.67.03-1.01,0-.17.02-.34.03-.5.03-.33.06-.66.11-.99.02-.16.04-.33.07-.49.03-.22.07-.43.12-.65.05-.26.11-.53.17-.78.22-.9.5-1.77.85-2.61.11-.26.22-.51.33-.76.12-.26.24-.5.37-.75.08-.15.16-.3.25-.45.41-.76.89-1.49,1.41-2.17.11-.16.23-.31.35-.45.01-.02.02-.04.04-.06.17-.21.35-.42.53-.62.05-.06.11-.12.17-.19.08-.1.17-.19.26-.28.02-.02.04-.04.06-.07.03-.03.07-.07.1-.1.08-.09.17-.17.25-.25.36-.34.76-.64,1.18-.9.19-.12.38-.24.57-.36.19-.12.38-.25.57-.38.77-.53,1.64-1.13,2.55-1.81,3.47-2.63,7.48-6.52,8.21-12.52.83-6.84-2.97-13.44-7.85-16.82-2.87-1.98-5.06-2.12-20.77-2.24-17.87-.13-20.23,0-22.96,2.24-4.84,3.96-6.62,11.02-5.61,16.82,1.06,6.09,5.03,9.89,8.54,12.5.93.69,1.82,1.29,2.62,1.84.22.15.53.35.94.61.5.31.98.66,1.4,1.08,0,0,.01.01.02.02.01.01.02.02.03.03,3.35,3.35,5.42,7.97,5.42,13.08v8.97c0,.26,0,.52-.02.77,0,.18-.02.36-.03.54-.01.19-.02.38-.04.57-.02.2-.04.39-.07.58-.03.2-.06.4-.09.6-.03.21-.07.41-.11.62-.02.07-.03.14-.04.21-.04.19-.08.38-.13.57-.01.04-.02.09-.03.13-.06.21-.11.42-.17.63,0,.02-.01.04-.02.06-.07.22-.13.44-.21.66t0,.01s0,.01,0,.02c-.03.1-.07.2-.11.3-1.33,3.43-4.85,5.52-8.52,5.03-.02,0-.04,0-.06,0-.69-.1-1.38-.21-2.07-.33-.73-.12-1.47-.26-2.2-.41-.33-.07-.66-.14-.99-.21-.45-.1-.9-.2-1.35-.31-.26-.06-.51-.13-.77-.2-.26-.07-.52-.13-.77-.21-.26-.07-.52-.14-.77-.22-1.18-.34-2.36-.73-3.52-1.17-.24-.08-.47-.17-.71-.27-.08-.03-.17-.07-.26-.1-.19-.08-.39-.16-.58-.24-.26-.1-.51-.21-.76-.33-.31-.13-.62-.27-.93-.41-.34-.16-.68-.31-1.01-.48-.36-.18-.73-.36-1.09-.56-.3-.16-.59-.32-.89-.48-.02-.01-.04-.03-.07-.04-.28-.16-.57-.33-.85-.49-.07-.03-.13-.07-.19-.11-.21-.12-.43-.26-.64-.39-.21-.13-.43-.27-.64-.41-.22-.14-.44-.29-.66-.44-.06-.04-.12-.08-.18-.12-.53-.36-1.07-.75-1.59-1.14-.22-.17-.45-.35-.68-.53-.17-.13-.34-.27-.5-.4-.19-.16-.38-.31-.57-.48-.08-.06-.15-.12-.22-.19-.2-.17-.4-.35-.59-.53-.38-.33-.75-.68-1.12-1.03-.06-.05-.11-.11-.16-.16-14.38-14.04-12.94-33.03-12.77-34.89,2.31-24.88,28.27-48.67,59.23-48.68,30.96-.01,56.28,23.72,59.24,48.29.29,2.46,2.25,21.46-11.68,35.44Z" fill="#fff"/>
      <circle cx="555.26" cy="756.57" r="23.55" fill="#3d3753"/>
      <circle cx="714.47" cy="756.57" r="23.55" fill="#3d3753"/>
    </g>
    <path d="M523.57,610.92c-36.97,13.81-65.4,42.52-76.19,77.85-14.54-9.96-24.07-26.69-24.07-45.65,0-30.54,24.76-55.3,55.3-55.3,18.53,0,34.93,9.11,44.96,23.1Z" fill="#3d3753"/>
    <path d="M748.46,610.92c36.97,13.81,65.4,42.52,76.19,77.85,14.54-9.96,24.07-26.69,24.07-45.65,0-30.54-24.76-55.3-55.3-55.3-18.53,0-34.93,9.11-44.96,23.1Z" fill="#3d3753"/>
  </g>
  <path d="M2113.59,801.8c-2.21,1-3.9,2.23-6.39,2.35-3.59.17-8.3-1.47-10.41-5.03-.6-1.01-.95-2.17.69-17.65.31-2.96.7-7.47,0-13.34-.15-1.25-.46-3.44-1.4-7.02-2.01-7.64-4.05-15.4-9.13-22.47,0-.01-.02-.02-.02-.03-14.09-19.56-42.56-23.67-64.32-17.18-16.25,4.85-30.54,14.95-42.59,26.89-19.7,19.53-33.91,44.47-41.03,71.27-12.08,20.81-29.74,42.08-49.07,55.48-2.41,1.67-5.31,2.56-8.22,2.29-11.01-1.01-10.99-14.74-8.54-24.31,11.74-45.92,30.08-89.3,48.84-132.68,6.09-14.09,11.37-25.29,14.73-32.27,8.71.12,17.43.23,26.14.35,26.86.35,53.71.71,80.57,1.06,12.52-1.18,20.91-10.74,20.36-19.66-.52-8.48-8.96-13.54-9.83-14.04-33.7-.23-67.4-.47-101.09-.7,7.96-18.25,15.91-36.51,23.87-54.76-1.03-9.27-7.71-16.67-16.15-18.25-10.26-1.92-17.74,5.77-18.25,6.32l-31.59,67.4h-94.78c-9.53,2.94-15.23,11.63-14.04,19.66,1.2,8.14,8.98,12.21,9.83,12.64,17.83.12,35.65.23,53.48.35h30.18c-2.38,5.86-6,14.78-10.38,25.71-18.88,47.12-41.17,87.3-65.56,131.2-4.83,8.7-15.73,19.76-23.39,25.86-6.59,5.25-18.89,5.84-20.16-4.52-.17-1.42-.07-2.86.2-4.27,4.13-21.19,16.9-39.83,27.19-58.48,11.39-20.63,28.49-53.64,10.24-75.32-8.46-10.05-23.16-12.97-36.06-10.56-20.42,3.81-38.93,16.86-52.81,31.82-5.74,6.18-12.37,14.65-13.32,14.03-6.03-4,10.8-24.67,6.77-32.74-10-20.01-34.94.92-39.03,14.49-7.62,25.29-18.31,46.06-30.22,69.49-.62,1.23-1.23,2.42-1.81,3.57-.2.4-.41.8-.61,1.2-1.1,2.17-2.14,4.21-3.11,6.14-10.12,13.44-38.59,44.89-42.12,47.21-5.3,3.48-12.07,6.5-17.72,1.51-3.74-3.3-5.06-8.56-3.72-13.36,10.09-36.17,28.55-70.37,45.22-103.83,1.91-3.83,4.82-9.68,8.43-16.85.14-1.45.52-7.3-3.51-12.64-4.45-5.89-10.99-6.82-12.64-7.02-1.42-.18-7.76-.96-12.64,2.81-2.12,1.64-3.99,4.6-7.72,10.53-2.11,3.35-3.45,5.83-4.91,5.62-1.2-.17-1.82-2.04-2.11-2.81-1.6-4.22-5.36-6.85-12.64-11.93-8.07-5.64-31.12-11.01-54.76-2.11-13.63,5.13-22.09,12.99-32.29,22.47-6.09,5.66-14.18,14.16-24.57,29.49-11.59,17.1-21.5,31.74-27.52,47.1-2.91,3.98-6.35,8.23-10.39,12.57-18.3,19.64-47.6,41.87-75.28,42.86-9.23.33-19.62-2.6-23.98-10.74-2.02-3.76-2.48-8.14-2.64-12.41-1.44-36.32,24.34-100.31,68.36-100.43,2.21,0,4.57.22,6.3,1.59,3.03,2.39,2.81,7.02,1.94,10.78-2.56,11.01-21.73,34.15,1.89,38.7,6.99,1.35,14.15-1.01,19.27-5.95,33.97-32.81,8.06-79.44-33.64-79.96-40.34-.5-71.51,38.02-88.98,69.97-6.71,12.27-12.6,25.71-15.78,39.39-.34.75-.65,1.42-.91,1.99-8.21,17.54-21.39,32.72-37.61,43.31-2.36,1.54-4.94,3.05-8.27,1.2-2.35-1.31-3.86-3.72-4.34-6.37-5.05-27.68,21.87-58.83,32.2-82.43,6.97-15.93,13.87-34.65,5.58-49.91-6.29-11.57-20.27-17.54-33.43-16.95-13.16.59-25.49,6.79-36.08,14.63-11.07,8.19-20.15,19.21-30.81,27.24-.18-.86-.21-1.61-.13-2.31.65-1.54,1.34-3.31,2.04-5.3.04-.07.07-.15.11-.22.02-.04.03-.07.05-.11,2.29-5.65,3.51-10.51,4.21-14.04,1.08-5.45.84-7.41,0-9.13-.77-1.57-1.95-2.72-3.29-3.7-1.48-1.38-3.29-2.34-5.15-3.02-26.27-9.56-37.06,35.59-47.02,54.46-15.49,29.37-23.29,44.33-30.89,54.76-7.21,9.89-24,31.48-51.25,52.65-14.79,11.49-30.22,23.48-54.06,31.59-19.87,6.76-35.48,7.39-45.63,7.72-11.97.39-17.48-.74-21.76-2.11-3.77-1.21-18.33-6.1-26.68-20.36-3.43-5.86-4.35-10.8-5.62-17.55-3.77-20.15.43-36.44,1.4-40.02,4.23-15.5,11.61-25.45,18.25-34.4,16.47-22.2,38.51-40.17,63.54-51.12,18.1-7.92,37.76-12.16,58.01-11.66,9.52.23,19.26,1.42,28.4-1.26,5.24-1.54,13.86-4.71,16.16-12.55,1.67-5.67-.48-12.31-4.64-16.08-4.87-4.4-11.6-4.06-15.69-3.95-12.14.33-38.78,1.57-50.69-7.56-10.18-7.81-14.23-21.79-12.62-34.51,3.33-26.3,27.22-52.9,47.4-68.41,13.63-10.47,29.09-22.36,51.26-23.87,7.37-.51,25.8-1.77,34.4,9.83,5.23,7.05,4.56,15.79,4.21,20.36-1,13.13-8.33,22.23-14.74,30.19-3.54,4.4-8.49,10.53-16.85,16.15-7.14,4.79-10.15,4.76-13.34,9.13-4.65,6.36-6.29,17.45-.7,23.17,5.17,5.3,14.18,3.58,18.25,2.81,5.16-.98,10.42-3.21,20.36-11.23,9.47-7.64,17.88-14.42,25.98-26.68,10.35-15.66,13.44-30.03,14.04-32.99,4.53-22.25,3.02-45.4-17.64-59.32-11.23-7.56-24.97-10.56-38.48-11.47-70.77-4.75-184.97,75.46-146.77,157.83,3.33,7.17,11.88,10.45,10.53,15.45-1.09,4.06-6.83,5.14-15.17,8.02l8.15-3.81c-2.2,1.01-5.05,2.33-8.4,3.89-.92.32-1.86.65-2.83,1.02-8.25,3.11-14.62,7.22-27.38,15.45-18.33,11.81-30.07,25.51-35.8,32.29-11.3,13.37-26.34,31.17-33,58.97-2.19,9.14-9.47,41.51,6.32,73.01,7.17,14.3,16.25,22.75,18.25,24.57,12.88,11.69,26.34,15.99,33.7,18.25,18.83,5.79,34.49,4.48,44.93,3.51,15.05-1.4,25.85-4.9,36.51-8.42,25.37-8.39,43.49-19.62,51.95-25.27,5.18-3.47,17.42-11.98,36.51-30.89.43-.43.86-.86,1.29-1.28-.96,11.87,3.74,19.97,19.82,18.08,21.11-2.47,25.33-34.26,33.27-49.29,14.39-27.24,36.46-52.57,57.35-74.98,11.07-11.88,23.34-23.58,38.99-28.16.67-.2,1.36-.3,2.06-.26,5.86.34,5.72,7.42,4.22,12.23-8.55,27.28-25.49,51.23-35.16,78.13-5,13.91-7.95,29.55-2.53,43.3,9.74,24.71,37,21.96,56.23,11.36,7.13-3.93,12.33-8.52,22.45-17.54,3.99-3.56,7.19-6.41,9.88-8.95,1.79,4.1,3.88,7.79,6.24,11.08,20.75,28.91,61.98,27.55,93.41,14.01,6.71-2.89,16.56-7.73,27.37-15.44,4.47-3.19,9.54-7.19,16.15-13.34.55-.51,1.1-1.03,1.64-1.55,1.34,8.77,4.58,18.31,12.4,26.12,13.38,13.38,33.73,15.26,47.05,12.63,21.48-4.25,33.05-26.57,49.83-31.59,1.05-.31,2.6-.2,3.51.7,1.72,1.72-.43,4.77,0,9.13.29,2.96,1.62,4.93,3.51,7.72,5.59,8.28,14.13,11.85,16.15,12.64,3.1,1.22,9.77,3.33,19.83,2.11,11.55-1.4,22.4-6.59,35.01-15.44.17,4.57,1.4,8.42,4.14,11.22,5.09,5.2,15.07,6.48,22.47,3.51,17.01-6.84,21.18-36.56,33.71-59.69,2.12-3.91,4.37-7.66,4.37-7.66,3.95-6.56,7.54-11.56,10.36-15.49,11.83-16.44,22.66-27.08,34.4-38.61,12.45-12.37,26.13-25.43,43.38-30.37,1.4-.4,2.91-.43,4.3.02,6.18,1.99,4.47,9.97,1.98,15.3-10.5,22.4-21.74,44.64-30.7,67.72-8.94,23.03-17.2,59.19,14.69,69.09,11.87,3.69,25,.63,35.84-5.45,11.91-6.69,23.45-16.77,33.54-28.04,1.78,10.48,6.08,20.33,14.17,26.98,12.33,10.13,30.62,10.11,45.39,4.08,15.05-6.14,31.15-18.34,43.58-32.92.84,3.46,2,6.84,3.58,10.07,15.79,32.4,52.42,33.6,81.58,19.47,20.17-9.78,34.38-28.07,37.55-32.52,0,0,.03-.04.03-.04.02-.03.05-.06.07-.1,22.34-31.3,63.07-36.73,89.33-62.42.02-.02.04-.04.06-.06.02-.02.04-.04.06-.06,9.05-8.87,30.18-49.27,17.07-62.06-2.81-2.74-7.64-5.17-11.75-3.9-7.95,2.46-5.03,16.05-14.28,33.44-.02.05-.05.09-.07.14-6.27,11.72-14.51,20.67-25.41,25.63ZM1566.04,797.63c-9.64,20.27-20.49,34.33-23.87,38.61-2.32,2.95-10.78,13.52-23.87,25.27-14.62,13.14-21.28,15.41-27.38,15.44-2.25.01-9.32.05-14.04-4.21-13.07-11.78,2.14-47.16,6.32-56.87,0,0,16.16-37.58,49.85-57.57,3.97-2.36,10.87-5.92,19.66-5.62,3.13.11,11.35.39,16.15,6.32,1.4,1.73,3.21,4.81,3.51,11.93.49,11.67-3.63,21.01-6.32,26.68ZM2043.61,840.57c-10.68,15.4-24.64,30.34-41.4,36.21-5.12,1.79-10.79,2.64-15.94.96-11.26-3.67-15.57-17.42-15.73-29.27-.34-23.94,10.05-50.22,28.97-65.24,4.95,23.19,29.54,41.27,52.6,42.87-1.83,4.54-5.33,9.91-8.5,14.47ZM2066.43,791.87c-.92,1.02-2.03,1.87-3.33,2.5-6.7,3.25-14.46-.97-20.69-5.06-7.79-5.12-16.05-10.79-19.34-19.51-11.91-31.55,39.69-23.66,46.49,4.67,1.42,5.93.76,13.11-3.13,17.4Z" fill="#ad4554"/>
</svg>